<svg width="834" height="834" viewBox="0 0 834 834" fill="none" xmlns="http://www.w3.org/2000/svg">
<g clip-path="url(#clip0_33_8236)">
<circle cx="417.5" cy="417.5" r="353" fill="url(#paint0_linear_33_8236)" stroke="url(#paint1_linear_33_8236)" stroke-width="7"/>
<path d="M405.337 261.234C409.569 250.02 425.432 250.02 429.663 261.234L540.437 554.806C545.228 567.501 529.806 578.124 519.651 569.124L426.123 486.225C421.202 481.863 413.798 481.863 408.877 486.225L315.349 569.124C305.194 578.124 289.772 567.501 294.563 554.805L405.337 261.234Z" fill="#008CFF"/>
<line x1="418" y1="238" x2="418" y2="95" stroke="url(#paint2_linear_33_8236)" stroke-width="10" stroke-linecap="round"/>
<g filter="url(#filter0_d_33_8236)">
<path d="M468.077 97.6084L468.134 101.685L473.33 100.485V96.6053L468.077 97.6084ZM461.854 98.7495L461.907 103.048L467.976 101.718L467.919 97.6374L461.854 98.7495ZM454.907 100.023L454.955 104.567L461.729 103.086L461.677 98.7829L454.907 100.023ZM447.123 101.45L447.166 106.274L454.759 104.612L454.711 100.059L447.123 101.45ZM471.02 101.381L471.098 106.855L473.33 106.15V100.805L471.02 101.381ZM465.105 102.695L465.179 108.459L470.948 106.896L470.87 101.414L465.105 102.695ZM438.319 103.063L438.355 108.203L446.944 106.322L446.9 101.49L438.319 103.063ZM458.533 104.151L458.601 110.242L465.012 108.505L464.936 102.731L458.533 104.151ZM428.305 104.897L428.331 110.396L438.104 108.257L438.067 103.109L428.305 104.897ZM451.175 105.784L451.239 112.235L458.416 110.292L458.346 104.194L451.175 105.784ZM416.7 106.999V112.92L428.043 110.46L428.017 104.951L416.7 106.999ZM442.902 107.62L442.958 114.481L451.039 112.292L450.975 105.829L442.902 107.62ZM468.218 107.975L468.281 112.533L473.33 110.943V106.473L468.218 107.975ZM433.509 109.705L433.554 117.031L442.721 114.547L442.666 107.672L433.509 109.705ZM461.988 109.681L462.048 114.497L468.123 112.583L468.061 108.018L461.988 109.681ZM455.031 111.588L455.086 116.691L461.87 114.553L461.811 109.729L455.031 111.588ZM422.775 112.084L422.804 119.943L433.294 117.099L433.25 109.761L422.775 112.084ZM447.232 113.725L447.281 119.149L454.888 116.752L454.834 111.642L447.232 113.725ZM416.7 113.411V121.564L422.493 120.027L422.465 112.153L416.7 113.411ZM438.412 116.14L438.453 121.93L447.059 119.219L447.009 113.785L438.412 116.14ZM428.373 118.892L428.403 125.096L438.2 122.01L438.159 116.21L428.373 118.892ZM416.7 122.056V128.783L428.114 125.186L428.084 118.97L416.7 122.056Z" fill="url(#paint3_linear_33_8236)"/>
<path d="M467.919 97.6374L467.976 101.718L461.907 103.048L461.854 98.7495L461.677 98.7815L461.729 103.087L454.955 104.567L454.907 100.023L454.711 100.059L454.759 104.612L447.166 106.274L447.123 101.45L446.9 101.49L446.944 106.322L438.355 108.203L438.319 103.063L438.067 103.109L438.104 108.257L428.331 110.396L428.305 104.897L428.017 104.951L428.043 110.46L416.7 112.92V113.411L422.465 112.153L422.493 120.027L416.7 121.564V122.056L428.084 118.97L428.114 125.186L428.403 125.096L428.373 118.892L438.159 116.21L438.2 122.01L438.453 121.93L438.412 116.14L447.009 113.785L447.059 119.219L447.281 119.149L447.232 113.725L454.834 111.642L454.888 116.752L455.086 116.691L455.031 111.588L461.811 109.729L461.87 114.553L462.048 114.497L461.988 109.681L468.061 108.018L468.123 112.583L468.281 112.533L468.218 107.975L473.33 106.473V106.15L471.098 106.855L471.02 101.381L473.33 100.805V100.485L468.134 101.685L468.077 97.6084L467.919 97.6374ZM465.105 102.695L470.87 101.414L470.948 106.896L465.179 108.459L465.105 102.695ZM458.533 104.153L464.936 102.731L465.012 108.505L458.601 110.242L458.533 104.153ZM451.175 105.784L458.346 104.194L458.416 110.292L451.239 112.235L451.175 105.784ZM442.902 107.62L450.975 105.829L451.039 112.292L442.958 114.481L442.902 107.62ZM433.509 109.705L442.666 107.672L442.721 114.547L433.554 117.031L433.509 109.705ZM422.775 112.084L433.25 109.761L433.294 117.099L422.804 119.943L422.775 112.084Z" fill="url(#paint4_linear_33_8236)"/>
<path d="M416.7 75.1198V108.089L428.017 106.041L428.305 105.987L438.067 104.199L438.319 104.153L446.9 102.58L447.123 102.541L454.711 101.148L454.907 101.113L461.677 99.8732L461.854 99.8398L467.919 98.7277L468.077 98.6987L473.33 97.6956V81.9972L437.216 71.3548L416.7 75.1198Z" fill="url(#paint5_linear_33_8236)"/>
<path d="M360.071 100.485L365.267 101.685L365.322 97.6084L360.071 96.6053V100.485ZM365.425 101.718L371.494 103.048L371.547 98.7495L365.482 97.6374L365.425 101.718ZM371.672 103.086L378.444 104.567L378.494 100.023L371.724 98.7829L371.672 103.086ZM378.642 104.612L386.236 106.274L386.278 101.45L378.69 100.059L378.642 104.612ZM360.071 106.15L362.303 106.855L362.38 101.381L360.071 100.805V106.15ZM362.452 106.896L368.222 108.459L368.298 102.695L362.531 101.414L362.452 106.896ZM386.459 106.322L395.046 108.203L395.082 103.063L386.501 101.49L386.459 106.322ZM368.389 108.505L374.799 110.242L374.868 104.151L368.465 102.731L368.389 108.505ZM395.297 108.257L405.069 110.396L405.096 104.897L395.333 103.109L395.297 108.257ZM374.986 110.292L382.161 112.235L382.225 105.784L375.054 104.194L374.986 110.292ZM405.358 110.46L416.7 112.92V106.999L405.384 104.951L405.358 110.46ZM382.364 112.292L390.443 114.481L390.498 107.62L382.427 105.829L382.364 112.292ZM360.071 110.943L365.12 112.533L365.182 107.975L360.071 106.473V110.943ZM390.68 114.547L399.847 117.031L399.892 109.705L390.735 107.672L390.68 114.547ZM365.278 112.583L371.355 114.497L371.414 109.681L365.341 108.018L365.278 112.583ZM371.531 114.553L378.316 116.691L378.37 111.588L371.59 109.729L371.531 114.553ZM400.107 117.099L410.599 119.943L410.625 112.084L400.151 109.761L400.107 117.099ZM378.513 116.752L386.12 119.149L386.168 113.725L378.568 111.642L378.513 116.752ZM410.908 120.027L416.7 121.564V113.411L410.936 112.153L410.908 120.027ZM386.342 119.219L394.948 121.93L394.99 116.14L386.392 113.785L386.342 119.219ZM395.201 122.01L404.999 125.096L405.028 118.892L395.242 116.21L395.201 122.01ZM405.287 125.186L416.7 128.783V122.056L405.316 118.97L405.287 125.186Z" fill="url(#paint6_linear_33_8236)"/>
<path d="M365.267 101.685L360.071 100.485V100.805L362.38 101.381L362.303 106.855L360.071 106.15V106.473L365.182 107.975L365.12 112.533L365.278 112.583L365.341 108.018L371.414 109.681L371.355 114.497L371.531 114.553L371.59 109.729L378.37 111.588L378.316 116.691L378.513 116.752L378.568 111.642L386.168 113.725L386.12 119.149L386.342 119.219L386.392 113.785L394.99 116.14L394.948 121.93L395.201 122.01L395.242 116.21L405.028 118.892L404.999 125.096L405.287 125.186L405.316 118.97L416.7 122.056V121.564L410.908 120.027L410.936 112.153L416.7 113.411V112.92L405.358 110.46L405.384 104.951L405.096 104.897L405.069 110.396L395.297 108.257L395.333 103.109L395.082 103.063L395.046 108.203L386.459 106.322L386.501 101.49L386.278 101.45L386.236 106.274L378.642 104.612L378.69 100.059L378.494 100.023L378.444 104.567L371.672 103.087L371.724 98.7815L371.547 98.7495L371.494 103.048L365.425 101.718L365.482 97.6374L365.323 97.6084L365.267 101.685ZM362.452 106.896L362.531 101.414L368.298 102.695L368.222 108.459L362.452 106.896ZM368.391 108.505L368.465 102.731L374.868 104.153L374.799 110.242L368.391 108.505ZM374.986 110.292L375.054 104.194L382.225 105.784L382.161 112.235L374.986 110.292ZM382.364 112.292L382.427 105.829L390.498 107.62L390.443 114.481L382.364 112.292ZM390.68 114.547L390.735 107.672L399.892 109.705L399.847 117.031L390.68 114.547ZM400.107 117.099L400.151 109.761L410.625 112.084L410.599 119.943L400.107 117.099Z" fill="url(#paint7_linear_33_8236)"/>
<path d="M360.071 80.907V96.6054L365.322 97.6084L365.482 97.6375L371.547 98.7496L371.724 98.783L378.494 100.023L378.69 100.058L386.278 101.451L386.501 101.49L395.082 103.063L395.333 103.109L405.096 104.897L405.384 104.951L416.7 106.999V74.0296L396.184 70.2646L360.071 80.907Z" fill="url(#paint8_linear_33_8236)"/>
<path d="M416.7 30.147V30.618V33.9367L473.401 49.0609V41.9349L416.7 23.2027V30.147ZM416.7 49.2324V49.2412V49.2513L420.642 49.9448L420.607 39.391L416.7 38.4446V38.4301V38.4184V49.2324ZM429.998 51.5947L447.214 54.6285L447.134 45.7915L429.946 41.6442L429.998 51.5947ZM422.762 45.1069L425.448 49.6831L428.025 46.2073L425.415 41.6544L422.762 45.1069ZM453.821 55.7944L466.313 57.9968L466.211 50.3939L453.734 47.3819L453.821 55.7944ZM448.672 50.519L450.588 54.2913L452.391 51.2952L450.521 47.5374L448.672 50.519ZM471.226 58.8631L473.401 59.2076V52.0497L471.121 51.5787L471.226 58.8631ZM467.37 54.4236L468.807 57.6333L470.137 55.0007L468.727 51.8011L467.37 54.4236Z" fill="url(#paint9_linear_33_8236)"/>
<path d="M360 41.9349V49.0609L416.7 33.9367V30.618V30.147V23.2027L360 41.9349ZM416.7 38.4301V38.4446L412.794 39.391L412.759 49.9448L416.7 49.2513V49.2412V49.2324V38.4184V38.4301ZM386.267 45.7915L386.185 54.6285L403.403 51.5947L403.455 41.6442L386.267 45.7915ZM405.375 46.2073L407.953 49.6831L410.639 45.1069L407.986 41.6544L405.375 46.2073ZM367.19 50.3939L367.088 57.9968L379.58 55.7944L379.668 47.3819L367.19 50.3939ZM381.01 51.2952L382.813 54.2913L384.73 50.519L382.88 47.5374L381.01 51.2952ZM360 52.0497V59.2076L362.176 58.8631L362.281 51.5787L360 52.0497ZM363.265 55.0007L364.594 57.6333L366.031 54.4236L364.675 51.8011L363.265 55.0007Z" fill="url(#paint10_linear_33_8236)"/>
<path d="M360 31.8216V41.935L416.7 23.2027V8.00005L360 31.8216ZM360 49.061V52.0497L362.281 51.5787L362.176 58.8631L360 59.2077L360.071 84.8638C362.718 101.084 375.133 97.5167 377.124 81.7704C377.124 81.7704 378.524 97.6287 387.261 99.4981C398.09 101.817 402.343 80.6656 402.343 80.6656C402.343 80.6656 405.426 105.489 416.7 105.49V49.2514L412.759 49.9448L412.794 39.391L416.7 38.4446V33.9367L360 49.061ZM386.267 45.7916L403.455 41.6442L403.403 51.5947L386.185 54.6286L386.267 45.7916ZM405.375 46.2073L407.986 41.6544L410.639 45.1069L407.953 49.6831L405.375 46.2073ZM367.19 50.394L379.668 47.3834L379.58 55.7944L367.088 57.9968L367.19 50.394ZM381.01 51.2952L382.88 47.5375L384.729 50.519L382.813 54.2913L381.01 51.2952ZM363.265 55.0007L364.675 51.8011L366.031 54.4236L364.594 57.6334L363.265 55.0007Z" fill="url(#paint11_linear_33_8236)"/>
<path d="M422.761 45.1076L425.449 49.6824L428.026 46.2066L425.414 41.6551L422.761 45.1076ZM429.945 41.645L429.999 51.594L447.215 54.6293L447.135 45.7909L429.945 41.645ZM448.672 50.5183L450.587 54.292L452.391 51.296L450.521 47.5368L448.672 50.5183ZM453.733 47.3827L453.822 55.7952L466.312 57.9975L466.212 50.3933L453.733 47.3827ZM467.37 54.4229L468.808 57.6326L470.137 55.0014L468.727 51.8004L467.37 54.4229ZM416.701 49.2507L420.641 49.9441L420.608 39.3917L416.701 38.4439V33.9375L473.4 49.0602V52.049L471.121 51.578L471.225 58.8624L473.4 59.2084L473.329 84.8646C470.672 101.083 458.259 97.5175 456.268 81.7697C456.268 81.7697 454.869 97.628 446.142 99.4974C435.315 101.816 431.062 80.6649 431.062 80.6649C431.062 80.6649 427.967 105.491 416.702 105.491L416.701 49.2507ZM473.4 31.8209V41.9342L416.701 23.2035V8.00079L473.4 31.8209Z" fill="#14110C"/>
</g>
</g>
<defs>
<filter id="filter0_d_33_8236" x="347" y="-1" width="139.401" height="146.783" filterUnits="userSpaceOnUse" color-interpolation-filters="sRGB">
<feFlood flood-opacity="0" result="BackgroundImageFix"/>
<feColorMatrix in="SourceAlpha" type="matrix" values="0 0 0 0 0 0 0 0 0 0 0 0 0 0 0 0 0 0 127 0" result="hardAlpha"/>
<feOffset dy="4"/>
<feGaussianBlur stdDeviation="6.5"/>
<feComposite in2="hardAlpha" operator="out"/>
<feColorMatrix type="matrix" values="0 0 0 0 0 0 0 0 0 0 0 0 0 0 0 0 0 0 0.42 0"/>
<feBlend mode="normal" in2="BackgroundImageFix" result="effect1_dropShadow_33_8236"/>
<feBlend mode="normal" in="SourceGraphic" in2="effect1_dropShadow_33_8236" result="shape"/>
</filter>
<linearGradient id="paint0_linear_33_8236" x1="417.5" y1="68" x2="417.5" y2="767" gradientUnits="userSpaceOnUse">
<stop stop-color="white"/>
<stop offset="1" stop-color="#DADADA"/>
</linearGradient>
<linearGradient id="paint1_linear_33_8236" x1="417.5" y1="68" x2="417.5" y2="767" gradientUnits="userSpaceOnUse">
<stop stop-color="#DADADA"/>
<stop offset="1" stop-color="#F0F0F0"/>
</linearGradient>
<linearGradient id="paint2_linear_33_8236" x1="420.5" y1="76.536" x2="424.245" y2="266.844" gradientUnits="userSpaceOnUse">
<stop offset="0.127213" stop-color="#008CFF" stop-opacity="0"/>
<stop offset="1" stop-color="#008CFF"/>
</linearGradient>
<linearGradient id="paint3_linear_33_8236" x1="489.639" y1="100.788" x2="396.712" y2="123.506" gradientUnits="userSpaceOnUse">
<stop stop-color="#7B5E42"/>
<stop offset="0.00301753" stop-color="#7B5E42"/>
<stop offset="1" stop-color="#423132"/>
</linearGradient>
<linearGradient id="paint4_linear_33_8236" x1="416.701" y1="114.225" x2="473.329" y2="114.225" gradientUnits="userSpaceOnUse">
<stop stop-color="#5B4539"/>
<stop offset="0.00301753" stop-color="#5B4539"/>
<stop offset="1" stop-color="#8D745C"/>
</linearGradient>
<linearGradient id="paint5_linear_33_8236" x1="471.318" y1="75.4627" x2="385.767" y2="95.1046" gradientUnits="userSpaceOnUse">
<stop stop-color="#E5E2DC"/>
<stop offset="0.157009" stop-color="#E5E2DC"/>
<stop offset="0.836085" stop-color="#969488"/>
<stop offset="0.945334" stop-color="#7C7767"/>
<stop offset="0.997995" stop-color="#7C7767"/>
<stop offset="1" stop-color="#7C7767"/>
</linearGradient>
<linearGradient id="paint6_linear_33_8236" x1="401.161" y1="89.8495" x2="380.175" y2="128.574" gradientUnits="userSpaceOnUse">
<stop stop-color="#7B5E42"/>
<stop offset="0.00301753" stop-color="#7B5E42"/>
<stop offset="1" stop-color="#423132"/>
</linearGradient>
<linearGradient id="paint7_linear_33_8236" x1="360.072" y1="114.225" x2="416.701" y2="114.225" gradientUnits="userSpaceOnUse">
<stop stop-color="#5B4539"/>
<stop offset="0.00301753" stop-color="#5B4539"/>
<stop offset="1" stop-color="#8D745C"/>
</linearGradient>
<linearGradient id="paint8_linear_33_8236" x1="408.747" y1="51.325" x2="379.212" y2="113.16" gradientUnits="userSpaceOnUse">
<stop stop-color="#C7C1B3"/>
<stop offset="0.00150876" stop-color="#C7C1B3"/>
<stop offset="0.675241" stop-color="#ECEBE6"/>
<stop offset="1" stop-color="#ECEBE6"/>
</linearGradient>
<linearGradient id="paint9_linear_33_8236" x1="412.343" y1="33.6615" x2="473.539" y2="55.9844" gradientUnits="userSpaceOnUse">
<stop stop-color="#98652F"/>
<stop offset="0.00250083" stop-color="#98652F"/>
<stop offset="0.545612" stop-color="#BE7B2D"/>
<stop offset="1" stop-color="#BF7E46"/>
</linearGradient>
<linearGradient id="paint10_linear_33_8236" x1="355.755" y1="47.3459" x2="412.717" y2="36.9542" gradientUnits="userSpaceOnUse">
<stop stop-color="#BE7B2E"/>
<stop offset="0.115884" stop-color="#BE7B2E"/>
<stop offset="0.589036" stop-color="#BE7B2E"/>
<stop offset="1" stop-color="#EDAA58"/>
</linearGradient>
<linearGradient id="paint11_linear_33_8236" x1="387.74" y1="17.355" x2="389.557" y2="99.1442" gradientUnits="userSpaceOnUse">
<stop stop-color="#2B2620"/>
<stop offset="0.475151" stop-color="#2B2620"/>
<stop offset="1" stop-color="#14110C"/>
</linearGradient>
<clipPath id="clip0_33_8236">
<rect width="834" height="834" fill="white"/>
</clipPath>
</defs>
</svg>
